name D:\school\WTK\thesis\model\3dpredictsim\Results\debug_batch\Pog_s1_tmt_bCst_d05_k2000_ig24_act_TTC.mot
datacolumns 128
datarows 4
range 1.20455520 1.24069185
endheader
time	pelvis_tilt	pelvis_list	pelvis_rotation	pelvis_tx	pelvis_ty	pelvis_tz	hip_flexion_l	hip_adduction_l	hip_rotation_l	hip_flexion_r	hip_adduction_r	hip_rotation_r	knee_angle_l	knee_angle_r	ankle_angle_l	ankle_angle_r	subtalar_angle_l	subtalar_angle_r	tmt_angle_l	tmt_angle_r	mtp_angle_l	mtp_angle_r	lumbar_extension	lumbar_bending	lumbar_rotation	arm_flex_l	arm_add_l	arm_rot_l	arm_flex_r	arm_add_r	arm_rot_r	elbow_flex_l	elbow_flex_r	pro_sup_l	pro_sup_r	glut_med1_l/activation	glut_med2_l/activation	glut_med3_l/activation	glut_min1_l/activation	glut_min2_l/activation	glut_min3_l/activation	semimem_l/activation	semiten_l/activation	bifemlh_l/activation	bifemsh_l/activation	sar_l/activation	add_long_l/activation	add_brev_l/activation	add_mag1_l/activation	add_mag2_l/activation	add_mag3_l/activation	tfl_l/activation	pect_l/activation	grac_l/activation	glut_max1_l/activation	glut_max2_l/activation	glut_max3_l/activation	iliacus_l/activation	psoas_l/activation	quad_fem_l/activation	gem_l/activation	peri_l/activation	rect_fem_l/activation	vas_med_l/activation	vas_int_l/activation	vas_lat_l/activation	med_gas_l/activation	lat_gas_l/activation	soleus_l/activation	tib_post_l/activation	flex_dig_l/activation	flex_hal_l/activation	tib_ant_l/activation	per_brev_l/activation	per_long_l/activation	per_tert_l/activation	ext_dig_l/activation	ext_hal_l/activation	ercspn_l/activation	intobl_l/activation	extobl_l/activation	glut_med1_r/activation	glut_med2_r/activation	glut_med3_r/activation	glut_min1_r/activation	glut_min2_r/activation	glut_min3_r/activation	semimem_r/activation	semiten_r/activation	bifemlh_r/activation	bifemsh_r/activation	sar_r/activation	add_long_r/activation	add_brev_r/activation	add_mag1_r/activation	add_mag2_r/activation	add_mag3_r/activation	tfl_r/activation	pect_r/activation	grac_r/activation	glut_max1_r/activation	glut_max2_r/activation	glut_max3_r/activation	iliacus_r/activation	psoas_r/activation	quad_fem_r/activation	gem_r/activation	peri_r/activation	rect_fem_r/activation	vas_med_r/activation	vas_int_r/activation	vas_lat_r/activation	med_gas_r/activation	lat_gas_r/activation	soleus_r/activation	tib_post_r/activation	flex_dig_r/activation	flex_hal_r/activation	tib_ant_r/activation	per_brev_r/activation	per_long_r/activation	per_tert_r/activation	ext_dig_r/activation	ext_hal_r/activation	ercspn_r/activation	intobl_r/activation	extobl_r/activation	
          1.20455520	         -2.92989545	         -1.51698116	          7.65071482	          1.50569399	          0.85713395	         -0.00260044	        -15.67013426	         -2.36780948	          7.12927288	         32.82950751	          1.25934110	         -0.55924109	        -15.97580915	        -15.91426214	         -6.34002211	          9.23915231	         15.01800552	         -0.10968927	          0.68957769	          0.01201984	         28.59763118	         -0.09767234	         -0.37870211	         -0.73203043	         -2.80885968	          4.00760162	        -13.49990634	         18.15536354	        -10.96990657	        -13.53428153	         10.09056570	         42.17871966	         16.09362736	         86.51662706	         86.51662706	          0.17298935	          0.08656398	          0.07915244	          0.20148488	          0.12875196	          0.08656381	          0.05000045	          0.05000005	          0.05000004	          0.05000015	          0.09044840	          0.05000064	          0.05000008	          0.05000009	          0.05000015	          0.05000009	          0.17685663	          0.05000104	          0.05000033	          0.05000158	          0.05000068	          0.05000024	          0.37217530	          0.55848488	          0.05000030	          0.05000052	          0.05837689	          0.21078948	          0.08243062	          0.08361217	          0.08582023	          0.15898127	          0.23975353	          0.06003796	          0.16436764	          0.19542523	          0.21265213	          0.05000000	          0.34771945	          0.32560949	          0.05000001	          0.21732125	          0.05000003	          0.05000000	          0.05000000	          0.05000001	          0.05000009	          0.05000005	          0.05000014	          0.05000007	          0.05000008	          0.05000022	          0.13323183	          0.06003784	          0.14073889	          0.05000021	          0.05004474	          0.06721484	          0.09384147	          0.17826084	          0.14786767	          0.11665843	          0.05000049	          0.06003681	          0.06003799	          0.05000010	          0.05000041	          0.09462501	          0.05789300	          0.05940435	          0.17007130	          0.05000133	          0.05001198	          0.05001582	          0.11623470	          0.11914755	          0.10346839	          0.06003795	          0.06003795	          0.06003795	          0.05000001	          0.05000022	          0.05001231	          0.54059003	          0.33861307	          0.20176320	          0.19994189	          0.57371021	          0.36835554	          0.05509932	          0.12862009	          0.10856023	
          1.21660075	         -2.92427157	         -1.44416932	          7.81171634	          1.52498090	          0.85596926	         -0.00224107	        -15.87671737	         -2.54469816	          6.92256953	         32.12698571	          1.50047483	         -0.36660425	        -17.25782102	        -15.85114349	         -9.00543352	          8.66211288	         15.34639637	         -0.46074268	          0.53583594	          0.01997597	         30.07268019	         -0.09584466	         -0.12684246	         -0.59447909	         -2.89943138	          3.56700206	        -13.55192589	         18.38982722	        -12.36342559	        -13.51604525	          9.91698277	         43.35772047	         16.13534006	         86.51662706	         86.51662706	          0.14406667	          0.07209106	          0.06591874	          0.16779794	          0.10722548	          0.07209094	          0.05000040	          0.05000003	          0.05000004	          0.05000003	          0.07532606	          0.13183906	          0.15691151	          0.12234687	          0.05002292	          0.05000068	          0.14728735	          0.06007955	          0.05000027	          0.05000062	          0.05000048	          0.05000054	          0.30995000	          0.46510982	          0.07209070	          0.06808119	          0.06003803	          0.17554684	          0.10358730	          0.11389676	          0.07282377	          0.13240062	          0.19966829	          0.05000000	          0.13688644	          0.16275140	          0.17709807	          0.23682336	          0.35561301	          0.30202923	          0.47311110	          0.37370183	          0.20607227	          0.05869001	          0.06898441	          0.05000074	          0.07121509	          0.07950800	          0.05000088	          0.06003781	          0.06003768	          0.05000102	          0.11095634	          0.05000003	          0.11720827	          0.05000003	          0.05000016	          0.05597698	          0.07815180	          0.25393701	          0.20048232	          0.13027294	          0.05000017	          0.05000027	          0.05000012	          0.06003798	          0.10501681	          0.11905339	          0.05000002	          0.05000007	          0.37412901	          0.06003873	          0.07221971	          0.07209111	          0.23267791	          0.23006093	          0.20348916	          0.05000000	          0.05000000	          0.05000000	          0.05000002	          0.07208790	          0.05000008	          0.69246725	          0.35096246	          0.22209632	          0.55627180	          0.63668340	          0.43752753	          0.05000000	          0.10711564	          0.09040966	
          1.22864630	         -2.91219924	         -1.37377798	          7.93664458	          1.54446527	          0.85453181	         -0.00190031	        -15.89351422	         -2.68529986	          6.71319883	         31.29855556	          1.72407424	         -0.11227083	        -18.90158766	        -16.41660716	        -11.49043478	          8.00934774	         15.62778611	         -0.82750555	          0.38392800	         -0.01607600	         30.74620239	         -0.15925247	          0.13333905	         -0.44024993	         -2.97392840	          3.05739472	        -13.61092711	         18.54586634	        -13.73121338	        -13.50804751	          9.82168418	         44.51755489	         16.14296029	         86.51662706	         86.51662706	          0.16446765	          0.06003793	          0.05489759	          0.13974325	          0.08929809	          0.06003783	          0.05000800	          0.06003822	          0.06003941	          0.05000021	          0.06273208	          0.16447927	          0.29731562	          0.16165187	          0.09430981	          0.14377515	          0.12266187	          0.05003584	          0.06003802	          0.05870743	          0.06003744	          0.06003807	          0.25812836	          0.38734651	          0.06003795	          0.05669858	          0.05000007	          0.14619654	          0.08626818	          0.09485396	          0.06064811	          0.11026409	          0.16628504	          0.05000000	          0.11399991	          0.13554043	          0.14748842	          0.44092967	          0.41705754	          0.30720794	          0.70777695	          0.52681953	          0.39595910	          0.07583186	          0.05745066	          0.05000003	          0.24442029	          0.21714513	          0.37106580	          0.05000008	          0.05000005	          0.32126891	          0.10586413	          0.05000035	          0.11056614	          0.05000003	          0.05000011	          0.07209124	          0.17061858	          0.24304516	          0.22815272	          0.16162980	          0.05000005	          0.07208506	          0.12480502	          0.05000005	          0.16674552	          0.16863298	          0.05000314	          0.05000009	          0.31157708	          0.05000072	          0.28780337	          0.06003795	          0.19377569	          0.19159627	          0.16946711	          0.06003795	          0.06003795	          0.06003795	          0.06003794	          0.06003781	          0.06003796	          0.57933054	          0.34546083	          0.18496330	          0.46326680	          0.64192391	          0.36437583	          0.05643681	          0.08921525	          0.07529375	
          1.24069185	         -2.89669834	         -1.30856702	          8.02038072	          1.56381717	          0.85285835	         -0.00156449	        -15.68415398	         -2.78995144	          6.52189631	         30.38264708	          1.93708134	          0.16747338	        -20.95726187	        -17.09216003	        -13.47554588	          7.58410992	         15.86981700	         -1.20432776	          0.28785578	         -0.00902787	         29.89615872	         -0.16591172	          0.37298245	         -0.26754115	         -3.03011839	          2.53041996	        -13.67041801	         18.62790223	        -15.00128914	        -13.51551423	          9.85779071	         45.63910493	         16.07295699	         86.51662706	         86.51662706	          0.22989413	          0.05000002	          0.05000000	          0.17984006	          0.07436805	          0.05000006	          0.05000077	          0.05000024	          0.05000123	          0.05000003	          0.05224376	          0.13697955	          0.26525150	          0.13462481	          0.07854205	          0.11973696	          0.10215361	          0.05485083	          0.05000017	          0.05000023	          0.05000018	          0.05000020	          0.21497098	          0.38670249	          0.05000002	          0.05000007	          0.05000003	          0.12175342	          0.08656402	          0.08656402	          0.05050826	          0.09182865	          0.13848325	          0.05000000	          0.09493986	          0.11287896	          0.12282932	          0.36720924	          0.34732823	          0.25584477	          0.65068706	          0.60323664	          0.32975738	          0.10824607	          0.05000000	          0.05000000	          0.31252940	          0.38178834	          0.47422931	          0.18290807	          0.21205181	          0.26755515	          0.08816433	          0.09330967	          0.09208021	          0.07209110	          0.05000012	          0.06003806	          0.14209226	          0.20240964	          0.22107241	          0.17124470	          0.05000004	          0.06003298	          0.10393850	          0.26534454	          0.22667903	          0.19234487	          0.05000001	          0.05000001	          0.25948344	          0.05529626	          0.23968488	          0.05000000	          0.16137790	          0.23744657	          0.19969333	          0.05000000	          0.05000000	          0.05000000	          0.05000000	          0.05000003	          0.05000003	          0.72959748	          0.36767478	          0.18577913	          0.70231710	          0.73106576	          0.53561330	          0.06723594	          0.07429906	          0.06270512	
